<svg width="135" height="10" viewBox="0 0 135 10" fill="none" xmlns="http://www.w3.org/2000/svg">
    <path d="M4.78035 4.02316C4.00253 4.02316 3.62982 3.83502 3.62982 3.34298C3.62982 2.85094 4.00253 2.67728 4.78035 2.67728H12.2993L14.4545 0.159189H5.03962C1.75009 0.159189 0.388909 1.34588 0.388909 3.16932C0.388909 4.83357 1.66907 5.9479 4.45626 5.9479H10.3547C11.1487 5.9479 11.5052 6.15051 11.5052 6.64255C11.5052 7.14906 11.1487 7.35166 10.3547 7.35166H2.15521L0 9.84081H10.0954C13.4012 9.84081 14.7462 8.65413 14.7462 6.67149C14.7462 4.90593 13.3202 4.02316 10.6788 4.02316H4.78035Z" fill="#4D85CF"/>
    <path d="M21.9878 1.0275C21.5989 0.390738 21.0156 0 20.1567 0C19.3141 0 18.5525 0.434153 18.2608 1.3314L15.4574 9.84081H18.7469L19.7678 6.46889C20.0919 5.3835 20.335 4.57308 20.497 3.80608C20.8373 4.45731 21.2262 5.13748 22.0202 6.46889L23.4786 8.91462C24.0458 9.86975 24.5968 10 25.407 10C26.2172 10 26.7682 9.86975 27.3353 8.91462L28.7937 6.48336C29.5392 5.22431 29.9443 4.48625 30.3008 3.80608C30.479 4.58755 30.7059 5.36903 31.0462 6.46889L32.0671 9.84081H35.4052L32.6666 1.3314C32.375 0.434153 31.6295 0 30.7869 0C29.9119 0 29.3285 0.40521 28.9396 1.0275L27.2057 3.77713C26.2496 5.26773 25.8283 5.97684 25.4718 6.65702C25.0991 5.97684 24.6778 5.25326 23.7217 3.76266L21.9878 1.0275Z" fill="#4D85CF"/>
    <path d="M53.8264 9.84081L47.0529 1.08538C46.5829 0.477569 45.9186 0 44.9139 0C43.8606 0 43.1962 0.520984 42.7425 1.08538L35.7907 9.84081H39.7608L44.8491 3.41534L46.7936 5.97685C47.1501 6.43994 47.6038 7.03329 47.8955 7.38061C47.377 7.35166 46.6153 7.35166 45.9672 7.35166H43.2448L41.2192 9.84081H53.8264Z" fill="#4D85CF"/>
    <path d="M68.4067 7.95948C67.6613 7.27931 67.2562 6.93198 66.8835 6.68596C68.666 6.36758 69.7193 5.12301 69.7193 3.61794C69.7193 0.853834 66.608 0.159189 64.1449 0.159189H57.1769L54.9893 2.67728H64.4204C65.5709 2.67728 66.2677 3.05355 66.2677 3.80608C66.2677 4.47178 65.4575 4.89146 64.4204 4.89146H54.9893V9.84081H58.3437V7.27931H63.4967L65.9112 9.84081H70.3999L68.4067 7.95948Z" fill="#4D85CF"/>
    <path d="M72.7566 0.159189L70.5852 2.67728H75.6734V9.84081H79.0278V2.67728H82.9007L85.0721 0.159189H72.7566Z" fill="#4D85CF"/>
    <path d="M90.7409 7.35166C88.9098 7.35166 87.5648 6.411 87.5648 5.03618C87.5648 3.64689 88.926 2.67728 90.7409 2.67728H96.1856L98.3408 0.159189H90.7409C86.9814 0.159189 84.2104 2.06946 84.2104 4.90593C84.2104 7.71346 86.9814 9.84081 90.7409 9.84081H96.1856L98.3408 7.35166H90.7409Z" fill="#4D85CF"/>
    <path d="M102.908 0.159189H99.5538V9.84081H102.908V0.159189Z" fill="#4D85CF"/>
    <path d="M106.147 0.159189L103.975 2.67728H109.064V9.84081H112.418V2.67728H116.291L118.462 0.159189H106.147Z" fill="#4D85CF"/>
    <path d="M130.787 0.159189L128.324 2.83647C127.546 3.67583 127.173 4.09551 126.963 4.37048C126.736 4.08104 125.828 3.19826 125.488 2.85094L122.895 0.159189H118.585L125.196 6.62808V9.84081H128.567V6.64255L135 0.159189H130.787Z" fill="#4D85CF"/>
</svg>
